<svg width="100" height="100" viewBox="0 0 100 100" fill="none" xmlns="http://www.w3.org/2000/svg">
<g clip-path="url(#clip0_13771_1813)">
<path d="M50 0C22.43 0 0 22.43 0 50C0 77.57 22.43 100 50 100C77.57 100 100 77.57 100 50C100 22.43 77.57 0 50 0ZM50 90.9091C27.4424 90.9091 9.09091 72.5573 9.09091 50C9.09091 27.4427 27.4424 9.09091 50 9.09091C72.5576 9.09091 90.9091 27.4427 90.9091 50C90.9091 72.5573 72.5573 90.9091 50 90.9091Z" fill="#12B76A"/>
<path d="M68.7489 32.3224L43.0356 58.0355L31.2508 46.2503C29.4759 44.4755 26.5977 44.4752 24.8226 46.25C23.0474 48.0252 23.0474 50.903 24.8226 52.6782L39.8214 67.6776C40.6738 68.53 41.8298 69.0091 43.0353 69.0091H43.0356C44.2411 69.0091 45.3971 68.53 46.2495 67.6779L75.1771 38.7509C76.9523 36.9758 76.9523 34.0979 75.1771 32.3227C73.402 30.5476 70.5241 30.5473 68.7489 32.3224Z" fill="#12B76A"/>
</g>
<defs>
<clipPath id="clip0_13771_1813">
<rect width="100" height="100" fill="white"/>
</clipPath>
</defs>
</svg>
