<svg width="100" height="100" viewBox="0 0 100 100" fill="none" xmlns="http://www.w3.org/2000/svg">
<g clip-path="url(#clip0_13867_1529)">
<g clip-path="url(#clip1_13867_1529)">
<path d="M50 0C22.43 0 0 22.43 0 50C0 77.57 22.43 100 50 100C77.5703 100 100 77.57 100 50C100 22.43 77.5703 0 50 0ZM50 90.9091C27.4427 90.9091 9.09091 72.5573 9.09091 50C9.09091 27.4427 27.4427 9.09091 50 9.09091C72.5573 9.09091 90.9091 27.4427 90.9091 50C90.9091 72.5573 72.5573 90.9091 50 90.9091Z" fill="#F04438"/>
<path d="M72.4989 27.5013C70.724 25.7261 67.8458 25.7261 66.0707 27.5013L50.0001 43.5719L33.9295 27.5013C32.1546 25.7261 29.2764 25.7261 27.5013 27.5013C25.7261 29.2764 25.7261 32.1543 27.5013 33.9295L43.5719 50.0001L27.5013 66.0707C25.7261 67.8458 25.7261 70.7237 27.5013 72.4989C28.3889 73.3864 29.5522 73.8304 30.7152 73.8304C31.8786 73.8304 33.0419 73.3867 33.9292 72.4989L49.9998 56.4283L66.0704 72.4989C66.958 73.3864 68.1213 73.8304 69.2843 73.8304C70.4477 73.8304 71.611 73.3867 72.4986 72.4989C74.2737 70.7237 74.2737 67.8458 72.4986 66.0707L56.4283 50.0001L72.4989 33.9295C74.274 32.1543 74.274 29.2764 72.4989 27.5013Z" fill="#F04438"/>
</g>
</g>
<defs>
<clipPath id="clip0_13867_1529">
<rect width="100" height="100" fill="white"/>
</clipPath>
<clipPath id="clip1_13867_1529">
<rect width="100" height="100" fill="white"/>
</clipPath>
</defs>
</svg>
