<svg width="40" height="40" viewBox="0 0 40 40" fill="none" xmlns="http://www.w3.org/2000/svg">
<rect width="40" height="40" rx="20" fill="#F04438"/>
<path d="M13.5165 27.9918C13.1242 28.0149 12.7384 27.883 12.4405 27.6239C11.8529 27.0259 11.8529 26.0601 12.4405 25.4621L25.3073 12.4455C25.9185 11.8669 26.8775 11.8991 27.4494 12.5173C27.9666 13.0765 27.9967 13.9358 27.52 14.5306L14.5773 27.6239C14.2832 27.8792 13.9036 28.0109 13.5165 27.9918Z" fill="white"/>
<path d="M26.3684 27.9917C25.9708 27.99 25.5898 27.8304 25.3075 27.5471L12.4406 14.5304C11.8962 13.8873 11.9702 12.9194 12.6059 12.3687C13.1733 11.8771 14.0101 11.8771 14.5775 12.3687L27.5202 25.3853C28.1312 25.964 28.1628 26.9342 27.5907 27.5524C27.568 27.577 27.5445 27.6007 27.5202 27.6238C27.2032 27.9026 26.7862 28.0358 26.3684 27.9917Z" fill="white"/>
</svg>
