<svg width="64" height="54" viewBox="0 0 64 54" fill="none" xmlns="http://www.w3.org/2000/svg">
<path opacity="0.4" d="M12.5 23.8332V19.6665C12.5 12.7707 14.5833 7.1665 25 7.1665" stroke="#0045EB" stroke-width="1.5" stroke-linecap="round" stroke-linejoin="round"/>
<path opacity="0.4" d="M25.0001 41.5417C27.8765 41.5417 30.2084 39.2098 30.2084 36.3333C30.2084 33.4569 27.8765 31.125 25.0001 31.125C22.1236 31.125 19.7917 33.4569 19.7917 36.3333C19.7917 39.2098 22.1236 41.5417 25.0001 41.5417Z" stroke="#0045EB" stroke-width="1.5" stroke-linecap="round" stroke-linejoin="round"/>
<path d="M35.4167 48.833H14.5834C6.25005 48.833 4.16672 46.7497 4.16672 38.4163V34.2497C4.16672 25.9163 6.25005 23.833 14.5834 23.833H35.4167C43.75 23.833 45.8334 25.9163 45.8334 34.2497V38.4163C45.8334 46.7497 43.75 48.833 35.4167 48.833Z" stroke="#0045EB" stroke-width="1.5" stroke-linecap="round" stroke-linejoin="round"/>
<path opacity="0.4" d="M38 36.1457C39.8755 36.1457 41.3958 34.6253 41.3958 32.7498C41.3958 30.8744 39.8755 29.354 38 29.354C36.1245 29.354 34.6042 30.8744 34.6042 32.7498C34.6042 34.6253 36.1245 36.1457 38 36.1457Z" fill="#3B82F6"/>
<path d="M47.6875 19.6665H28.3125C19.7708 19.6665 17.1667 22.2707 17.1667 30.8123V34.6873C17.1667 43.229 19.7708 45.8332 28.3125 45.8332H47.6875C56.2292 45.8332 58.8333 43.229 58.8333 34.6873V30.8123C58.8333 22.2707 56.2292 19.6665 47.6875 19.6665ZM38 39.0415C34.5208 39.0415 31.7083 36.2082 31.7083 32.7498C31.7083 29.2915 34.5208 26.4582 38 26.4582C41.4792 26.4582 44.2917 29.2915 44.2917 32.7498C44.2917 36.2082 41.4792 39.0415 38 39.0415Z" fill="#3B82F6"/>
<path opacity="0.4" d="M27.8333 19.6873V17.2498C27.8333 11.1457 29.5625 7.08317 38 7.08317C46.4375 7.08317 48.1667 11.1457 48.1667 17.2498V19.6873C49.2292 19.7082 50.1875 19.7498 51.0833 19.8748V17.2498C51.0833 11.6248 49.7292 4.1665 38 4.1665C26.2708 4.1665 24.9167 11.6248 24.9167 17.2498V19.854C25.7917 19.7498 26.7708 19.6873 27.8333 19.6873Z" fill="#3B82F6"/>
</svg>
